# xmcd
#
# Track frame offsets:
#	150
#	10498
#	21256
#	34010
#	45184
#	59840
#	71075
#	81886
#	93659
#	106722
#	118896
#	130431
#	142626
#	155512
#	165899
#	185707
#	199403
#	212711
#
# Disc length: 3005 seconds
#
# Revision: 0
# Processed by: cddbd v1.5.2PL0 Copyright (c) Steve Scherf et al.
# Submitted via: EZCDAudioConverter 2.1.7.1
#
DISCID=fd0bbb12
DTITLE=V/A - Sound Dimension
DYEAR=1900
DGENRE=
TTITLE0=Sound Dimension - Less Problem
TTITLE1=Sound Dimension - Rockfort Rock
TTITLE2=Sound Dimension - Funky
TTITLE3=Sound Dimension - Ten To Ten
TTITLE4=Sound Dimension - Jamaica Underground
TTITLE5=Sound Dimension - Real Rock
TTITLE6=Sound Dimension - Reggae Time
TTITLE7=Jackie Mittoo and Sound Dimension - In Cold Blood
TTITLE8=Sound Dimension - Heavy Rock
TTITLE9=Sound Dimension - Great Mu Ga Ru Ga
TTITLE10=Sound Dimension - Park View
TTITLE11=Jackie Mittoo and Sound Dimension - Ironside
TTITLE12=Sound Dimension - Mojo Rocksteady
TTITLE13=Sound Dimension - Scorcia
TTITLE14=Sound Dimension - Drum Song
TTITLE15=Sound Dimension - Summertime
TTITLE16=Ernest Ranglin and Sound Dimension - Straight Flush
TTITLE17=Sound Dimension - Jamaica Bag
EXTD=
EXTT0=
EXTT1=
EXTT2=
EXTT3=
EXTT4=
EXTT5=
EXTT6=
EXTT7=
EXTT8=
EXTT9=
EXTT10=
EXTT11=
EXTT12=
EXTT13=
EXTT14=
EXTT15=
EXTT16=
EXTT17=
PLAYORDER=
